<?xml version="1.0" encoding="UTF-8" standalone="no"?>
<!DOCTYPE svg PUBLIC "-//W3C//DTD SVG 1.1//EN"
 "http://www.w3.org/Graphics/SVG/1.1/DTD/svg11.dtd">
<!-- Generated by graphviz version 2.47.0 (20210316.0004)
 -->
<!-- Title: dependencies Pages: 1 -->
<svg width="1542pt" height="284pt"
 viewBox="0.00 0.00 1542.00 284.00" xmlns="http://www.w3.org/2000/svg" xmlns:xlink="http://www.w3.org/1999/xlink">
<g id="graph0" class="graph" transform="scale(1 1) rotate(0) translate(4 280)">
<title>dependencies</title>
<polygon fill="white" stroke="transparent" points="-4,4 -4,-280 1538,-280 1538,4 -4,4"/>
<text text-anchor="start" x="746.01" y="-42.4" font-family="sans-serif" font-weight="bold" font-size="14.00">Legend</text>
<polygon fill="#ffffb3" stroke="transparent" points="533,-10 533,-30 553,-30 553,-10 533,-10"/>
<text text-anchor="start" x="556.63" y="-15.4" font-family="sans-serif" font-size="14.00"> &#160;Declarations</text>
<polygon fill="#8dd3c7" stroke="transparent" points="646,-10 646,-30 666,-30 666,-10 646,-10"/>
<text text-anchor="start" x="669.73" y="-15.4" font-family="sans-serif" font-size="14.00"> &#160;Module</text>
<polygon fill="#80b1d3" stroke="transparent" points="732,-10 732,-30 752,-30 752,-10 732,-10"/>
<text text-anchor="start" x="755.78" y="-15.4" font-family="sans-serif" font-size="14.00"> &#160;Bootstrap</text>
<polygon fill="#fdb462" stroke="transparent" points="829,-10 829,-30 849,-30 849,-10 829,-10"/>
<text text-anchor="start" x="852.67" y="-15.4" font-family="sans-serif" font-size="14.00"> &#160;Providers</text>
<polygon fill="#fb8072" stroke="transparent" points="925,-10 925,-30 945,-30 945,-10 925,-10"/>
<text text-anchor="start" x="948.73" y="-15.4" font-family="sans-serif" font-size="14.00"> &#160;Exports</text>
<g id="clust1" class="cluster">
<title>cluster_AppModule</title>
<polygon fill="none" stroke="black" stroke-dasharray="1,5" points="8,-70 8,-268 1526,-268 1526,-70 8,-70"/>
</g>
<g id="clust13" class="cluster">
<title>cluster_AppModule_bootstrap</title>
<polygon fill="none" stroke="black" points="733,-208 733,-260 857,-260 857,-208 733,-208"/>
</g>
<g id="clust11" class="cluster">
<title>cluster_AppModule_imports</title>
<polygon fill="none" stroke="black" points="1374,-78 1374,-130 1518,-130 1518,-78 1374,-78"/>
</g>
<g id="clust2" class="cluster">
<title>cluster_AppModule_declarations</title>
<polygon fill="none" stroke="black" points="16,-78 16,-130 1366,-130 1366,-78 16,-78"/>
</g>
<!-- AppComponent -->
<g id="node1" class="node">
<title>AppComponent</title>
<polygon fill="#ffffb3" stroke="black" points="1357.94,-122 1252.06,-122 1252.06,-86 1357.94,-86 1357.94,-122"/>
<text text-anchor="middle" x="1305" y="-99.8" font-family="Times,serif" font-size="14.00">AppComponent</text>
</g>
<!-- AppModule -->
<g id="node9" class="node">
<title>AppModule</title>
<polygon fill="#8dd3c7" stroke="black" points="836.66,-187 833.66,-191 812.66,-191 809.66,-187 753.34,-187 753.34,-151 836.66,-151 836.66,-187"/>
<text text-anchor="middle" x="795" y="-164.8" font-family="Times,serif" font-size="14.00">AppModule</text>
</g>
<!-- AppComponent&#45;&gt;AppModule -->
<g id="edge1" class="edge">
<title>AppComponent&#45;&gt;AppModule</title>
<path fill="none" stroke="black" d="M1305,-122.13C1305,-142.57 1305,-173 1305,-173 1305,-173 846.74,-173 846.74,-173"/>
<polygon fill="black" stroke="black" points="846.74,-169.5 836.74,-173 846.74,-176.5 846.74,-169.5"/>
</g>
<!-- DashboardComponent -->
<g id="node2" class="node">
<title>DashboardComponent</title>
<polygon fill="#ffffb3" stroke="black" points="1233.97,-122 1092.03,-122 1092.03,-86 1233.97,-86 1233.97,-122"/>
<text text-anchor="middle" x="1163" y="-99.8" font-family="Times,serif" font-size="14.00">DashboardComponent</text>
</g>
<!-- DashboardComponent&#45;&gt;AppModule -->
<g id="edge2" class="edge">
<title>DashboardComponent&#45;&gt;AppModule</title>
<path fill="none" stroke="black" d="M1163,-122.27C1163,-140.56 1163,-166 1163,-166 1163,-166 846.86,-166 846.86,-166"/>
<polygon fill="black" stroke="black" points="846.86,-162.5 836.86,-166 846.86,-169.5 846.86,-162.5"/>
</g>
<!-- DialogAddUserComponent -->
<g id="node3" class="node">
<title>DialogAddUserComponent</title>
<polygon fill="#ffffb3" stroke="black" points="1073.97,-122 904.03,-122 904.03,-86 1073.97,-86 1073.97,-122"/>
<text text-anchor="middle" x="989" y="-99.8" font-family="Times,serif" font-size="14.00">DialogAddUserComponent</text>
</g>
<!-- DialogAddUserComponent&#45;&gt;AppModule -->
<g id="edge3" class="edge">
<title>DialogAddUserComponent&#45;&gt;AppModule</title>
<path fill="none" stroke="black" d="M989,-122.01C989,-138.05 989,-159 989,-159 989,-159 847.1,-159 847.1,-159"/>
<polygon fill="black" stroke="black" points="847.1,-155.5 837.1,-159 847.1,-162.5 847.1,-155.5"/>
</g>
<!-- DialogDeleteUserComponent -->
<g id="node4" class="node">
<title>DialogDeleteUserComponent</title>
<polygon fill="#ffffb3" stroke="black" points="886.39,-122 703.61,-122 703.61,-86 886.39,-86 886.39,-122"/>
<text text-anchor="middle" x="795" y="-99.8" font-family="Times,serif" font-size="14.00">DialogDeleteUserComponent</text>
</g>
<!-- DialogDeleteUserComponent&#45;&gt;AppModule -->
<g id="edge4" class="edge">
<title>DialogDeleteUserComponent&#45;&gt;AppModule</title>
<path fill="none" stroke="black" d="M795,-122.11C795,-122.11 795,-140.99 795,-140.99"/>
<polygon fill="black" stroke="black" points="791.5,-140.99 795,-150.99 798.5,-140.99 791.5,-140.99"/>
</g>
<!-- DialogEditAddressComponent -->
<g id="node5" class="node">
<title>DialogEditAddressComponent</title>
<polygon fill="#ffffb3" stroke="black" points="685.14,-122 496.86,-122 496.86,-86 685.14,-86 685.14,-122"/>
<text text-anchor="middle" x="591" y="-99.8" font-family="Times,serif" font-size="14.00">DialogEditAddressComponent</text>
</g>
<!-- DialogEditAddressComponent&#45;&gt;AppModule -->
<g id="edge5" class="edge">
<title>DialogEditAddressComponent&#45;&gt;AppModule</title>
<path fill="none" stroke="black" d="M591,-122.01C591,-138.05 591,-159 591,-159 591,-159 743.23,-159 743.23,-159"/>
<polygon fill="black" stroke="black" points="743.23,-162.5 753.23,-159 743.23,-155.5 743.23,-162.5"/>
</g>
<!-- DialogEditUserComponent -->
<g id="node6" class="node">
<title>DialogEditUserComponent</title>
<polygon fill="#ffffb3" stroke="black" points="478.7,-122 309.3,-122 309.3,-86 478.7,-86 478.7,-122"/>
<text text-anchor="middle" x="394" y="-99.8" font-family="Times,serif" font-size="14.00">DialogEditUserComponent</text>
</g>
<!-- DialogEditUserComponent&#45;&gt;AppModule -->
<g id="edge6" class="edge">
<title>DialogEditUserComponent&#45;&gt;AppModule</title>
<path fill="none" stroke="black" d="M394,-122.27C394,-140.56 394,-166 394,-166 394,-166 743.22,-166 743.22,-166"/>
<polygon fill="black" stroke="black" points="743.22,-169.5 753.22,-166 743.22,-162.5 743.22,-169.5"/>
</g>
<!-- UserComponent -->
<g id="node7" class="node">
<title>UserComponent</title>
<polygon fill="#ffffb3" stroke="black" points="291.76,-122 184.24,-122 184.24,-86 291.76,-86 291.76,-122"/>
<text text-anchor="middle" x="238" y="-99.8" font-family="Times,serif" font-size="14.00">UserComponent</text>
</g>
<!-- UserComponent&#45;&gt;AppModule -->
<g id="edge7" class="edge">
<title>UserComponent&#45;&gt;AppModule</title>
<path fill="none" stroke="black" d="M238,-122.13C238,-142.57 238,-173 238,-173 238,-173 743.13,-173 743.13,-173"/>
<polygon fill="black" stroke="black" points="743.13,-176.5 753.13,-173 743.13,-169.5 743.13,-176.5"/>
</g>
<!-- UserDetailComponent -->
<g id="node8" class="node">
<title>UserDetailComponent</title>
<polygon fill="#ffffb3" stroke="black" points="165.97,-122 24.03,-122 24.03,-86 165.97,-86 165.97,-122"/>
<text text-anchor="middle" x="95" y="-99.8" font-family="Times,serif" font-size="14.00">UserDetailComponent</text>
</g>
<!-- UserDetailComponent&#45;&gt;AppModule -->
<g id="edge8" class="edge">
<title>UserDetailComponent&#45;&gt;AppModule</title>
<path fill="none" stroke="black" d="M95,-122.01C95,-144.49 95,-180 95,-180 95,-180 743.31,-180 743.31,-180"/>
<polygon fill="black" stroke="black" points="743.31,-183.5 753.31,-180 743.31,-176.5 743.31,-183.5"/>
</g>
<!-- AppComponent  -->
<g id="node11" class="node">
<title>AppComponent </title>
<polygon fill="#80b1d3" stroke="black" points="849.44,-252 740.56,-252 740.56,-216 849.44,-216 849.44,-252"/>
<text text-anchor="middle" x="795" y="-229.8" font-family="Times,serif" font-size="14.00">AppComponent </text>
</g>
<!-- AppModule&#45;&gt;AppComponent  -->
<g id="edge10" class="edge">
<title>AppModule&#45;&gt;AppComponent </title>
<path fill="none" stroke="black" stroke-dasharray="1,5" d="M795,-187.11C795,-187.11 795,-205.99 795,-205.99"/>
<polygon fill="black" stroke="black" points="791.5,-205.99 795,-215.99 798.5,-205.99 791.5,-205.99"/>
</g>
<!-- AppRoutingModule -->
<g id="node10" class="node">
<title>AppRoutingModule</title>
<polygon fill="#8dd3c7" stroke="black" points="1510.27,-122 1507.27,-126 1486.27,-126 1483.27,-122 1381.73,-122 1381.73,-86 1510.27,-86 1510.27,-122"/>
<text text-anchor="middle" x="1446" y="-99.8" font-family="Times,serif" font-size="14.00">AppRoutingModule</text>
</g>
<!-- AppRoutingModule&#45;&gt;AppModule -->
<g id="edge9" class="edge">
<title>AppRoutingModule&#45;&gt;AppModule</title>
<path fill="none" stroke="black" d="M1446,-122.01C1446,-144.49 1446,-180 1446,-180 1446,-180 846.71,-180 846.71,-180"/>
<polygon fill="black" stroke="black" points="846.71,-176.5 836.71,-180 846.71,-183.5 846.71,-176.5"/>
</g>
</g>
</svg>
