<?xml version="1.0" encoding="UTF-8" standalone="no"?>
<!DOCTYPE svg PUBLIC "-//W3C//DTD SVG 1.1//EN"
 "http://www.w3.org/Graphics/SVG/1.1/DTD/svg11.dtd">
<!-- Generated by graphviz version 2.47.0 (20210316.0004)
 -->
<!-- Title: dependencies Pages: 1 -->
<svg width="1542pt" height="284pt"
 viewBox="0.00 0.00 1542.00 284.00" xmlns="http://www.w3.org/2000/svg" xmlns:xlink="http://www.w3.org/1999/xlink">
<g id="graph0" class="graph" transform="scale(1 1) rotate(0) translate(4 280)">
<title>dependencies</title>
<polygon fill="white" stroke="transparent" points="-4,4 -4,-280 1538,-280 1538,4 -4,4"/>
<text text-anchor="start" x="746.01" y="-42.4" font-family="sans-serif" font-weight="bold" font-size="14.00">Legend</text>
<polygon fill="#ffffb3" stroke="transparent" points="533,-10 533,-30 553,-30 553,-10 533,-10"/>
<text text-anchor="start" x="556.63" y="-15.4" font-family="sans-serif" font-size="14.00"> &#160;Declarations</text>
<polygon fill="#8dd3c7" stroke="transparent" points="646,-10 646,-30 666,-30 666,-10 646,-10"/>
<text text-anchor="start" x="669.73" y="-15.4" font-family="sans-serif" font-size="14.00"> &#160;Module</text>
<polygon fill="#80b1d3" stroke="transparent" points="732,-10 732,-30 752,-30 752,-10 732,-10"/>
<text text-anchor="start" x="755.78" y="-15.4" font-family="sans-serif" font-size="14.00"> &#160;Bootstrap</text>
<polygon fill="#fdb462" stroke="transparent" points="829,-10 829,-30 849,-30 849,-10 829,-10"/>
<text text-anchor="start" x="852.67" y="-15.4" font-family="sans-serif" font-size="14.00"> &#160;Providers</text>
<polygon fill="#fb8072" stroke="transparent" points="925,-10 925,-30 945,-30 945,-10 925,-10"/>
<text text-anchor="start" x="948.73" y="-15.4" font-family="sans-serif" font-size="14.00"> &#160;Exports</text>
<g id="clust1" class="cluster">
<title>cluster_AppModule</title>
<polygon fill="none" stroke="black" stroke-dasharray="1,5" points="8,-70 8,-268 1526,-268 1526,-70 8,-70"/>
</g>
<g id="clust2" class="cluster">
<title>cluster_AppModule_declarations</title>
<polygon fill="none" stroke="black" points="168,-78 168,-130 1518,-130 1518,-78 168,-78"/>
</g>
<g id="clust11" class="cluster">
<title>cluster_AppModule_imports</title>
<polygon fill="none" stroke="black" points="16,-78 16,-130 160,-130 160,-78 16,-78"/>
</g>
<g id="clust13" class="cluster">
<title>cluster_AppModule_bootstrap</title>
<polygon fill="none" stroke="black" points="681,-208 681,-260 805,-260 805,-208 681,-208"/>
</g>
<!-- AppComponent -->
<g id="node1" class="node">
<title>AppComponent</title>
<polygon fill="#ffffb3" stroke="black" points="1509.94,-122 1404.06,-122 1404.06,-86 1509.94,-86 1509.94,-122"/>
<text text-anchor="middle" x="1457" y="-99.8" font-family="Times,serif" font-size="14.00">AppComponent</text>
</g>
<!-- AppModule -->
<g id="node9" class="node">
<title>AppModule</title>
<polygon fill="#8dd3c7" stroke="black" points="784.66,-187 781.66,-191 760.66,-191 757.66,-187 701.34,-187 701.34,-151 784.66,-151 784.66,-187"/>
<text text-anchor="middle" x="743" y="-164.8" font-family="Times,serif" font-size="14.00">AppModule</text>
</g>
<!-- AppComponent&#45;&gt;AppModule -->
<g id="edge1" class="edge">
<title>AppComponent&#45;&gt;AppModule</title>
<path fill="none" stroke="black" d="M1457,-122.01C1457,-144.49 1457,-180 1457,-180 1457,-180 794.74,-180 794.74,-180"/>
<polygon fill="black" stroke="black" points="794.74,-176.5 784.74,-180 794.74,-183.5 794.74,-176.5"/>
</g>
<!-- DashboardComponent -->
<g id="node2" class="node">
<title>DashboardComponent</title>
<polygon fill="#ffffb3" stroke="black" points="1385.97,-122 1244.03,-122 1244.03,-86 1385.97,-86 1385.97,-122"/>
<text text-anchor="middle" x="1315" y="-99.8" font-family="Times,serif" font-size="14.00">DashboardComponent</text>
</g>
<!-- DashboardComponent&#45;&gt;AppModule -->
<g id="edge2" class="edge">
<title>DashboardComponent&#45;&gt;AppModule</title>
<path fill="none" stroke="black" d="M1315,-122.13C1315,-142.57 1315,-173 1315,-173 1315,-173 795.06,-173 795.06,-173"/>
<polygon fill="black" stroke="black" points="795.06,-169.5 785.06,-173 795.06,-176.5 795.06,-169.5"/>
</g>
<!-- DialogAddUserComponent -->
<g id="node3" class="node">
<title>DialogAddUserComponent</title>
<polygon fill="#ffffb3" stroke="black" points="1225.97,-122 1056.03,-122 1056.03,-86 1225.97,-86 1225.97,-122"/>
<text text-anchor="middle" x="1141" y="-99.8" font-family="Times,serif" font-size="14.00">DialogAddUserComponent</text>
</g>
<!-- DialogAddUserComponent&#45;&gt;AppModule -->
<g id="edge3" class="edge">
<title>DialogAddUserComponent&#45;&gt;AppModule</title>
<path fill="none" stroke="black" d="M1141,-122.27C1141,-140.56 1141,-166 1141,-166 1141,-166 794.84,-166 794.84,-166"/>
<polygon fill="black" stroke="black" points="794.84,-162.5 784.84,-166 794.84,-169.5 794.84,-162.5"/>
</g>
<!-- DialogDeleteUserComponent -->
<g id="node4" class="node">
<title>DialogDeleteUserComponent</title>
<polygon fill="#ffffb3" stroke="black" points="1038.39,-122 855.61,-122 855.61,-86 1038.39,-86 1038.39,-122"/>
<text text-anchor="middle" x="947" y="-99.8" font-family="Times,serif" font-size="14.00">DialogDeleteUserComponent</text>
</g>
<!-- DialogDeleteUserComponent&#45;&gt;AppModule -->
<g id="edge4" class="edge">
<title>DialogDeleteUserComponent&#45;&gt;AppModule</title>
<path fill="none" stroke="black" d="M947,-122.01C947,-138.05 947,-159 947,-159 947,-159 794.77,-159 794.77,-159"/>
<polygon fill="black" stroke="black" points="794.77,-155.5 784.77,-159 794.77,-162.5 794.77,-155.5"/>
</g>
<!-- DialogEditAddressComponent -->
<g id="node5" class="node">
<title>DialogEditAddressComponent</title>
<polygon fill="#ffffb3" stroke="black" points="837.14,-122 648.86,-122 648.86,-86 837.14,-86 837.14,-122"/>
<text text-anchor="middle" x="743" y="-99.8" font-family="Times,serif" font-size="14.00">DialogEditAddressComponent</text>
</g>
<!-- DialogEditAddressComponent&#45;&gt;AppModule -->
<g id="edge5" class="edge">
<title>DialogEditAddressComponent&#45;&gt;AppModule</title>
<path fill="none" stroke="black" d="M743,-122.11C743,-122.11 743,-140.99 743,-140.99"/>
<polygon fill="black" stroke="black" points="739.5,-140.99 743,-150.99 746.5,-140.99 739.5,-140.99"/>
</g>
<!-- DialogEditUserComponent -->
<g id="node6" class="node">
<title>DialogEditUserComponent</title>
<polygon fill="#ffffb3" stroke="black" points="630.7,-122 461.3,-122 461.3,-86 630.7,-86 630.7,-122"/>
<text text-anchor="middle" x="546" y="-99.8" font-family="Times,serif" font-size="14.00">DialogEditUserComponent</text>
</g>
<!-- DialogEditUserComponent&#45;&gt;AppModule -->
<g id="edge6" class="edge">
<title>DialogEditUserComponent&#45;&gt;AppModule</title>
<path fill="none" stroke="black" d="M546,-122.01C546,-138.05 546,-159 546,-159 546,-159 691.22,-159 691.22,-159"/>
<polygon fill="black" stroke="black" points="691.22,-162.5 701.22,-159 691.22,-155.5 691.22,-162.5"/>
</g>
<!-- UserComponent -->
<g id="node7" class="node">
<title>UserComponent</title>
<polygon fill="#ffffb3" stroke="black" points="443.76,-122 336.24,-122 336.24,-86 443.76,-86 443.76,-122"/>
<text text-anchor="middle" x="390" y="-99.8" font-family="Times,serif" font-size="14.00">UserComponent</text>
</g>
<!-- UserComponent&#45;&gt;AppModule -->
<g id="edge7" class="edge">
<title>UserComponent&#45;&gt;AppModule</title>
<path fill="none" stroke="black" d="M390,-122.27C390,-140.56 390,-166 390,-166 390,-166 691.12,-166 691.12,-166"/>
<polygon fill="black" stroke="black" points="691.12,-169.5 701.12,-166 691.12,-162.5 691.12,-169.5"/>
</g>
<!-- UserDetailComponent -->
<g id="node8" class="node">
<title>UserDetailComponent</title>
<polygon fill="#ffffb3" stroke="black" points="317.97,-122 176.03,-122 176.03,-86 317.97,-86 317.97,-122"/>
<text text-anchor="middle" x="247" y="-99.8" font-family="Times,serif" font-size="14.00">UserDetailComponent</text>
</g>
<!-- UserDetailComponent&#45;&gt;AppModule -->
<g id="edge8" class="edge">
<title>UserDetailComponent&#45;&gt;AppModule</title>
<path fill="none" stroke="black" d="M247,-122.13C247,-142.57 247,-173 247,-173 247,-173 691.14,-173 691.14,-173"/>
<polygon fill="black" stroke="black" points="691.14,-176.5 701.14,-173 691.14,-169.5 691.14,-176.5"/>
</g>
<!-- AppComponent  -->
<g id="node11" class="node">
<title>AppComponent </title>
<polygon fill="#80b1d3" stroke="black" points="797.44,-252 688.56,-252 688.56,-216 797.44,-216 797.44,-252"/>
<text text-anchor="middle" x="743" y="-229.8" font-family="Times,serif" font-size="14.00">AppComponent </text>
</g>
<!-- AppModule&#45;&gt;AppComponent  -->
<g id="edge10" class="edge">
<title>AppModule&#45;&gt;AppComponent </title>
<path fill="none" stroke="black" stroke-dasharray="1,5" d="M743,-187.11C743,-187.11 743,-205.99 743,-205.99"/>
<polygon fill="black" stroke="black" points="739.5,-205.99 743,-215.99 746.5,-205.99 739.5,-205.99"/>
</g>
<!-- AppRoutingModule -->
<g id="node10" class="node">
<title>AppRoutingModule</title>
<polygon fill="#8dd3c7" stroke="black" points="152.27,-122 149.27,-126 128.27,-126 125.27,-122 23.73,-122 23.73,-86 152.27,-86 152.27,-122"/>
<text text-anchor="middle" x="88" y="-99.8" font-family="Times,serif" font-size="14.00">AppRoutingModule</text>
</g>
<!-- AppRoutingModule&#45;&gt;AppModule -->
<g id="edge9" class="edge">
<title>AppRoutingModule&#45;&gt;AppModule</title>
<path fill="none" stroke="black" d="M88,-122.01C88,-144.49 88,-180 88,-180 88,-180 691.03,-180 691.03,-180"/>
<polygon fill="black" stroke="black" points="691.03,-183.5 701.03,-180 691.03,-176.5 691.03,-183.5"/>
</g>
</g>
</svg>
